<svg id="Layer_1" data-name="Layer 1" xmlns="http://www.w3.org/2000/svg" viewBox="0 0 133.14 38.21"><defs><style>.cls-1{fill:#fff}</style></defs><title>appstoredownloadbtn</title><path d="M133.14 34.38a3.83 3.83 0 0 1-3.83 3.83H3.84A3.83 3.83 0 0 1 0 34.38V3.84A3.84 3.84 0 0 1 3.84 0h125.47a3.83 3.83 0 0 1 3.83 3.84v30.54z"/><path class="cls-1" d="M29.24 18.89A5.8 5.8 0 0 1 32 14a5.93 5.93 0 0 0-4.68-2.53c-2-.21-3.87 1.18-4.88 1.18s-2.57-1.16-4.23-1.12A6.23 6.23 0 0 0 13 14.75c-2.27 3.92-.58 9.69 1.59 12.86 1.09 1.55 2.35 3.29 4 3.23s2.23-1 4.19-1 2.51 1 4.21 1 2.84-1.56 3.89-3.13A12.84 12.84 0 0 0 32.66 24a5.6 5.6 0 0 1-3.42-5.11zM26 9.42a5.71 5.71 0 0 0 1.31-4.09 5.81 5.81 0 0 0-3.76 1.94 5.43 5.43 0 0 0-1.34 3.94A4.8 4.8 0 0 0 26 9.42zM52.75 30.61h-2.27l-1.24-3.91h-4.32l-1.18 3.91h-2.22l4.28-13.3h2.65zm-3.89-5.55l-1.13-3.47q-.18-.53-.67-2.51-.2.85-.63 2.51l-1.11 3.47h3.57zM63.77 25.7a5.45 5.45 0 0 1-1.32 3.87 3.87 3.87 0 0 1-2.94 1.26 2.94 2.94 0 0 1-2.72-1.36v5.05h-2.18V24.18q0-1.54-.08-3.16h1.88l.12 1.52a3.79 3.79 0 0 1 6.07-.38 5.29 5.29 0 0 1 1.17 3.54zm-2.17.08a4 4 0 0 0-.6-2.31 2.18 2.18 0 0 0-1.86-.95 2.21 2.21 0 0 0-1.43.52 2.43 2.43 0 0 0-.84 1.37 2.79 2.79 0 0 0-.1.65v1.6a2.56 2.56 0 0 0 .64 1.77 2.13 2.13 0 0 0 1.67.72 2.18 2.18 0 0 0 1.88-.93 4.09 4.09 0 0 0 .64-2.44zM74.81 25.7a5.45 5.45 0 0 1-1.32 3.87 3.86 3.86 0 0 1-2.94 1.26 2.94 2.94 0 0 1-2.72-1.36v5.05h-2.18V24.18q0-1.54-.08-3.16h1.88l.12 1.52a3.79 3.79 0 0 1 6.07-.38 5.3 5.3 0 0 1 1.17 3.54zm-2.17.08a4 4 0 0 0-.64-2.31 2.18 2.18 0 0 0-1.86-.95 2.21 2.21 0 0 0-1.43.52 2.43 2.43 0 0 0-.84 1.37 2.82 2.82 0 0 0-.1.65v1.6a2.57 2.57 0 0 0 .64 1.77 2.13 2.13 0 0 0 1.67.72 2.18 2.18 0 0 0 1.92-.92 4.09 4.09 0 0 0 .64-2.45zM87.15 26.88A3.55 3.55 0 0 1 86 29.65a5.24 5.24 0 0 1-3.62 1.17 6.35 6.35 0 0 1-3.49-.82l.49-1.78a5.84 5.84 0 0 0 3.08.85 2.91 2.91 0 0 0 1.88-.54 1.78 1.78 0 0 0 .66-1.47 1.85 1.85 0 0 0-.55-1.36 5.15 5.15 0 0 0-1.84-1q-3.5-1.3-3.49-3.82a3.38 3.38 0 0 1 1.22-2.69 4.83 4.83 0 0 1 3.26-1 6.46 6.46 0 0 1 3 .63l-.5 1.66a5.24 5.24 0 0 0-2.55-.61 2.57 2.57 0 0 0-1.76.55 1.58 1.58 0 0 0-.53 1.2 1.62 1.62 0 0 0 .61 1.3 6.91 6.91 0 0 0 1.94 1 6.57 6.57 0 0 1 2.53 1.62 3.39 3.39 0 0 1 .81 2.34zM94.2 22.62h-2.35v4.66q0 1.78 1.24 1.78A3.83 3.83 0 0 0 94 29l.06 1.62a4.82 4.82 0 0 1-1.66.24 2.56 2.56 0 0 1-2-.77 3.78 3.78 0 0 1-.71-2.59v-4.88h-1.4V21h1.4v-1.74l2.09-.63V21h2.42v1.6zM104.8 25.74a5.27 5.27 0 0 1-1.26 3.63 4.51 4.51 0 0 1-3.54 1.46 4.29 4.29 0 0 1-3.37-1.4 5.1 5.1 0 0 1-1.23-3.53 5.21 5.21 0 0 1 1.29-3.65 4.48 4.48 0 0 1 3.48-1.42 4.38 4.38 0 0 1 3.4 1.4 5.06 5.06 0 0 1 1.23 3.51zm-2.21.07a4.32 4.32 0 0 0-.57-2.28 2.11 2.11 0 0 0-1.91-1.15 2.14 2.14 0 0 0-2 1.15 4.4 4.4 0 0 0-.57 2.32 4.32 4.32 0 0 0 .57 2.28 2.18 2.18 0 0 0 3.85 0 4.32 4.32 0 0 0 .63-2.32zM111.73 22.89a3.69 3.69 0 0 0-.67-.06 2 2 0 0 0-1.74.85 3.19 3.19 0 0 0-.53 1.89v5h-2.13V24q0-1.66-.08-3h1.86l.08 1.84h.06a3.28 3.28 0 0 1 1.07-1.52 2.58 2.58 0 0 1 1.54-.51 3.38 3.38 0 0 1 .53 0v2zM121.27 25.36a5 5 0 0 1-.08 1h-6.4a2.79 2.79 0 0 0 .93 2.17 3.17 3.17 0 0 0 2.09.67 7.08 7.08 0 0 0 2.59-.45l.33 1.48a8 8 0 0 1-3.22.59 4.66 4.66 0 0 1-3.51-1.34 4.85 4.85 0 0 1-1.26-3.48 5.5 5.5 0 0 1 1.19-3.61 4.09 4.09 0 0 1 3.36-1.54 3.57 3.57 0 0 1 3.14 1.54 5.19 5.19 0 0 1 .84 2.97zm-2-.55a2.9 2.9 0 0 0-.41-1.64 1.86 1.86 0 0 0-1.7-.89 2 2 0 0 0-1.7.87 3.17 3.17 0 0 0-.63 1.66h4.44zM48.16 9.12a3.28 3.28 0 0 1-1.06 2.66 4.21 4.21 0 0 1-2.78.82 13 13 0 0 1-1.53-.08V6.09a11.28 11.28 0 0 1 1.8-.09 3.89 3.89 0 0 1 2.59.75 3 3 0 0 1 .98 2.37zm-1.11 0a2.39 2.39 0 0 0-.61-1.76 2.39 2.39 0 0 0-1.77-.61 4.47 4.47 0 0 0-.84.07v4.89a5.6 5.6 0 0 0 .71 0 2.48 2.48 0 0 0 1.86-.67 2.68 2.68 0 0 0 .65-1.89zM54 10.15a2.58 2.58 0 0 1-.62 1.78 2.22 2.22 0 0 1-1.73.72A2.11 2.11 0 0 1 50 12a2.51 2.51 0 0 1-.62-1.74A2.56 2.56 0 0 1 50 8.43a2.2 2.2 0 0 1 1.71-.7 2.16 2.16 0 0 1 1.67.69 2.49 2.49 0 0 1 .62 1.73zm-1.09 0a2.13 2.13 0 0 0-.28-1.12 1 1 0 0 0-.94-.56 1.05 1.05 0 0 0-1 .56 2.17 2.17 0 0 0-.28 1.14 2.13 2.13 0 0 0 .28 1.12 1.07 1.07 0 0 0 1.89 0 2.12 2.12 0 0 0 .35-1.11zM61.87 7.83l-1.47 4.71h-1l-.61-2A15.14 15.14 0 0 1 58.45 9a11.1 11.1 0 0 1-.38 1.52l-.65 2h-1L55 7.83h1.08l.53 2.24q.19.8.32 1.51.12-.59.39-1.5l.67-2.25h.85l.71 2.17q.23.8.38 1.55a14.75 14.75 0 0 1 .34-1.55l.57-2.2h1zM67.31 12.54h-1v-2.7q0-1.25-1-1.25a1 1 0 0 0-.76.34 1.21 1.21 0 0 0-.29.81v2.8h-1V9.18 7.83h.84v.74a1.51 1.51 0 0 1 .62-.57 1.77 1.77 0 0 1 1-.26 1.5 1.5 0 0 1 1.1.43 2.07 2.07 0 0 1 .54 1.56v2.82zM70.2 12.54h-1V5.67h1v6.88zM76.37 10.15a2.58 2.58 0 0 1-.62 1.78 2.22 2.22 0 0 1-1.73.72 2.11 2.11 0 0 1-1.65-.65 2.51 2.51 0 0 1-.62-1.74 2.56 2.56 0 0 1 .63-1.79 2.2 2.2 0 0 1 1.71-.7 2.16 2.16 0 0 1 1.67.69 2.49 2.49 0 0 1 .61 1.69zm-1.09 0A2.13 2.13 0 0 0 75 9.06a1 1 0 0 0-.94-.56 1 1 0 0 0-1 .56 2.17 2.17 0 0 0-.28 1.14 2.13 2.13 0 0 0 .28 1.12 1.06 1.06 0 0 0 1 .56 1 1 0 0 0 .94-.57 2.11 2.11 0 0 0 .28-1.13zM81.44 12.54h-.94l-.08-.54a1.61 1.61 0 0 1-1.38.65 1.42 1.42 0 0 1-1.08-.43 1.34 1.34 0 0 1-.37-1 1.47 1.47 0 0 1 .72-1.32 3.76 3.76 0 0 1 2-.45v-.04a.84.84 0 0 0-1-.93 2.19 2.19 0 0 0-1.23.35l-.18-.69a3 3 0 0 1 1.62-.41 1.68 1.68 0 0 1 1.85 1.95v1.74a7.37 7.37 0 0 0 .07 1.12zm-1.09-1.62v-.72q-1.73 0-1.73 1a.71.71 0 0 0 .2.55.73.73 0 0 0 .51.18 1.05 1.05 0 0 0 .67-.26.89.89 0 0 0 .36-.56.85.85 0 0 0-.01-.19zM87.4 12.54h-.93v-.76a1.57 1.57 0 0 1-1.51.86 1.77 1.77 0 0 1-1.5-.64 2.61 2.61 0 0 1-.56-1.74 2.73 2.73 0 0 1 .61-1.85A1.88 1.88 0 0 1 85 7.73a1.41 1.41 0 0 1 1.33.64v-2.7h1v5.61q.03.72.07 1.26zm-1.09-2v-.77a1.5 1.5 0 0 0 0-.33 1.19 1.19 0 0 0-.41-.64 1 1 0 0 0-.7-.26 1.08 1.08 0 0 0-.92.47 2 2 0 0 0-.34 1.19 1.86 1.86 0 0 0 .32 1.14 1.08 1.08 0 0 0 .92.47 1 1 0 0 0 .82-.39 1.3 1.3 0 0 0 .31-.87zM96.36 10.15a2.58 2.58 0 0 1-.62 1.78 2.21 2.21 0 0 1-1.73.72 2.11 2.11 0 0 1-1.65-.65 2.51 2.51 0 0 1-.62-1.74 2.56 2.56 0 0 1 .63-1.79 2.2 2.2 0 0 1 1.71-.7 2.15 2.15 0 0 1 1.67.69 2.49 2.49 0 0 1 .61 1.69zm-1.09 0A2.13 2.13 0 0 0 95 9.06a1 1 0 0 0-1-.56 1.05 1.05 0 0 0-1 .56 2.17 2.17 0 0 0-.28 1.14 2.13 2.13 0 0 0 .28 1.12 1.07 1.07 0 0 0 1.89 0 2.13 2.13 0 0 0 .38-1.14zM102 12.54h-1v-2.7q0-1.25-1-1.25a.94.94 0 0 0-.76.34 1.21 1.21 0 0 0-.29.81v2.8h-1V9.18 7.83h.92v.74A1.53 1.53 0 0 1 99.4 8a1.77 1.77 0 0 1 1-.26 1.5 1.5 0 0 1 1.1.43 2.07 2.07 0 0 1 .5 1.55v2.82zM109 8.61h-1.15v2.29c0 .58.2.87.61.87a1.86 1.86 0 0 0 .47 0v.8a2.36 2.36 0 0 1-.81.12 1.25 1.25 0 0 1-1-.38 1.85 1.85 0 0 1-.35-1.27V8.61h-.69v-.78h.69V7l1-.31v1.14H109v.78zM114.59 12.54h-1V9.86q0-1.27-.95-1.27a1 1 0 0 0-1 .74 1.31 1.31 0 0 0 0 .38v2.83h-1V5.67h1v2.84a1.58 1.58 0 0 1 1.36-.78 1.46 1.46 0 0 1 1.08.43 2.15 2.15 0 0 1 .53 1.58v2.8zM120.32 10a2.51 2.51 0 0 1 0 .48h-3.14a1.37 1.37 0 0 0 .46 1.07 1.56 1.56 0 0 0 1 .33 3.48 3.48 0 0 0 1.27-.22l.16.73a4 4 0 0 1-1.58.29 2.28 2.28 0 0 1-1.72-.64 2.38 2.38 0 0 1-.62-1.73 2.7 2.7 0 0 1 .58-1.78 2 2 0 0 1 1.65-.76 1.75 1.75 0 0 1 1.54.76 2.53 2.53 0 0 1 .4 1.47zm-1-.27a1.41 1.41 0 0 0-.2-.81.91.91 0 0 0-.83-.44 1 1 0 0 0-.83.43 1.58 1.58 0 0 0-.31.81h2.18z"/></svg>