<?xml version="1.0" encoding="utf-8"?>
<!-- Generator: Adobe Illustrator 22.0.0, SVG Export Plug-In . SVG Version: 6.00 Build 0)  -->
<svg version="1.1" id="Calque_1" xmlns="http://www.w3.org/2000/svg" xmlns:xlink="http://www.w3.org/1999/xlink" x="0px" y="0px"
	 viewBox="0 0 100 100" style="enable-background:new 0 0 100 100;" xml:space="preserve">
<style type="text/css">
	.st0{fill:#FFFFFF;}
	.st1{fill:#FD4B3B;}
</style>
<g>
	<path class="st0" d="M50,0C22.1,0.4,0.1,22.1,0,50c-0.1,27.9,22,50.1,50,50.1c27.9,0,50-22,50-49.9C100.1,22.2,78,0.4,50,0z"/>
	<path class="st1" d="M50,0c27.9,0.4,50,22.2,50,50.2c-0.1,27.9-22.1,49.9-50,49.9C22,100.1-0.1,77.9,0,50C0.1,22.1,22.1,0.4,50,0z
		 M66.9,57.5c2.8,0,5.5,0,8.1,0c2.2,0,2.9-0.6,2.9-2.9c0-5.5,0-10.9,0-16.4c0-2.3-0.7-2.9-3.1-2.9c-7.9,0-15.8,0-23.7,0
		c-2.5,0-3,0.5-3,3.1c0,5.1,0,10.2,0,15.3c0,3.4,0.4,3.8,3.8,3.8c2.4,0,4.8,0,7.2,0c0,1.3,0,2.2,0,3.1c-6.1,0.7-7.2,1.4-6.9,4
		c7.3,0,14.5,0,21.9,0c-0.8-4.5-4.4-3.6-7.3-4C66.9,59.6,66.9,58.7,66.9,57.5z M41.4,50.1c0-4.3-0.1-8.6,0-12.9
		c0-1.5-0.5-1.9-1.9-1.9c-5.2,0-10.3,0-15.5,0c-1.4,0-2,0.5-2,1.9c0,8.6,0,17.2,0,25.8c0,1.3,0.5,1.8,1.8,1.8
		c5.3-0.1,10.6-0.1,15.8,0c1.5,0,1.7-0.6,1.7-1.9C41.4,58.7,41.4,54.4,41.4,50.1z"/>
	<path class="st0" d="M66.9,57.5c0,1.2,0,2.1,0,3.2c2.9,0.3,6.5-0.5,7.3,4c-7.4,0-14.7,0-21.9,0c-0.3-2.7,0.7-3.3,6.9-4
		c0-0.9,0-1.9,0-3.1c-2.4,0-4.8,0-7.2,0c-3.4,0-3.8-0.4-3.8-3.8c0-5.1,0-10.2,0-15.3c0-2.6,0.5-3.1,3-3.1c7.9,0,15.8,0,23.7,0
		c2.4,0,3,0.6,3.1,2.9c0,5.5,0,10.9,0,16.4c0,2.3-0.7,2.9-2.9,2.9C72.4,57.5,69.8,57.5,66.9,57.5z M52.3,39.4c0,4.8,0,9.3,0,13.9
		c7.2,0,14.3,0,21.4,0c0-4.7,0-9.3,0-13.9C66.6,39.4,59.5,39.4,52.3,39.4z"/>
	<path class="st0" d="M41.4,50.1c0,4.3,0,8.6,0,12.9c0,1.3-0.3,1.9-1.7,1.9c-5.3-0.1-10.6-0.1-15.8,0c-1.4,0-1.8-0.5-1.8-1.8
		c0-8.6,0-17.2,0-25.8c0-1.4,0.6-1.9,2-1.9c5.2,0,10.3,0,15.5,0c1.4,0,2,0.4,1.9,1.9C41.4,41.5,41.4,45.8,41.4,50.1z M37.2,56.9
		c0-5.8,0-11.3,0-17.2c-3.2,0-6.2,0.1-9.3,0c-1.4,0-1.6,0.5-1.6,1.7c0.1,4.6,0,9.3,0,13.9c0,0.5,0.1,1,0.1,1.6
		C30.1,56.9,33.6,56.9,37.2,56.9z M31.8,63.3c0.8-1.1,1.7-1.9,1.6-2.3c-0.2-0.7-1.1-1.2-1.7-1.7c-0.5,0.6-1.4,1.1-1.5,1.7
		C30.2,61.5,31,62.2,31.8,63.3z"/>
	<path class="st1" d="M52.3,39.4c7.2,0,14.2,0,21.4,0c0,4.6,0,9.2,0,13.9c-7.1,0-14.2,0-21.4,0C52.3,48.8,52.3,44.2,52.3,39.4z"/>
	<path class="st1" d="M37.2,56.9c-3.7,0-7.1,0-10.7,0c-0.1-0.6-0.1-1.1-0.1-1.6c0-4.6,0-9.3,0-13.9c0-1.2,0.3-1.8,1.6-1.7
		c3,0.1,6.1,0,9.3,0C37.2,45.5,37.2,51.1,37.2,56.9z"/>
	<path class="st1" d="M31.8,63.3c-0.8-1.1-1.6-1.8-1.5-2.4c0.1-0.6,0.9-1.1,1.5-1.7c0.6,0.6,1.5,1.1,1.7,1.7
		C33.5,61.5,32.6,62.2,31.8,63.3z"/>
</g>
</svg>
