<?xml version="1.0" encoding="utf-8"?>
<!-- Generator: Adobe Illustrator 22.0.0, SVG Export Plug-In . SVG Version: 6.00 Build 0)  -->
<svg version="1.1" id="Calque_1" xmlns="http://www.w3.org/2000/svg" xmlns:xlink="http://www.w3.org/1999/xlink" x="0px" y="0px"
	 viewBox="0 0 100 100" style="enable-background:new 0 0 100 100;" xml:space="preserve">
<style type="text/css">
	.st0{fill:#FFFFFF;}
	.st1{fill:#FD4B3B;}
</style>
<g>
	<path class="st0" d="M50,100c27.9-0.4,49.9-22.2,49.9-50c0-27.9-22.1-50-50-50C22,0,0,22.1,0,49.9C0,77.9,22.1,99.7,50,100z"/>
	<path class="st1" d="M50,100C22.1,99.7,0,77.9,0,49.9C0,22.1,22,0,49.9,0c27.9,0,50,22.1,50,50C99.9,77.8,77.9,99.6,50,100z
		 M41.4,67.3c0.3,0.1,0.5,0.2,0.7,0.2c6.7,0,13.5,0,20.2,0c1.5,0,2.3-0.9,2.8-2.2c1.9-5.6,3.8-11.2,5.6-16.8c1-3.2-0.3-4.9-3.7-4.9
		c-2.6,0-5.1,0-7.7,0c-2-0.1-3.2-1.6-2.8-3.5c0.1-0.6,0.3-1.2,0.5-1.8c0.7-2.7,1.5-5.3,2.2-8c0.4-1.8-0.4-3.3-1.9-3.8
		c-1.6-0.5-2.9,0.1-3.8,1.4c-0.5,0.7-0.8,1.5-1.2,2.3c-2,3.8-3.9,7.6-6.1,11.3c-0.6,1-1.9,2-3.1,2.2c-1.5,0.3-1.7,0.9-1.7,2.2
		c0,6.6,0,13.2,0,19.8C41.3,66.1,41.4,66.7,41.4,67.3z M35.8,67.4c0-0.8,0-1.5,0-2.1c0-5.8,0-11.6,0-17.4c0-4.3,0-4.3-4.3-4.3
		c-1.4,0-1.9,0.3-1.9,1.8c0.1,6.8,0,13.7,0,20.5c0,0.4,0.1,0.9,0.1,1.4C31.7,67.4,33.6,67.4,35.8,67.4z"/>
	<path class="st0" d="M41.4,67.3c0-0.6-0.1-1.2-0.1-1.8c0-6.6,0-13.2,0-19.8c0-1.2,0.2-1.9,1.7-2.2c1.1-0.2,2.5-1.2,3.1-2.2
		c2.2-3.7,4.1-7.5,6.1-11.3c0.4-0.8,0.7-1.6,1.2-2.3c0.9-1.3,2.2-1.9,3.8-1.4c1.5,0.5,2.3,2,1.9,3.8c-0.6,2.7-1.5,5.4-2.2,8
		c-0.2,0.6-0.3,1.2-0.5,1.8c-0.4,1.9,0.8,3.5,2.8,3.5c2.5,0.1,5.1,0,7.7,0c3.4,0,4.8,1.7,3.7,4.9c-1.8,5.6-3.7,11.2-5.6,16.8
		c-0.4,1.3-1.3,2.2-2.8,2.2c-6.7,0-13.5,0-20.2,0C41.9,67.5,41.7,67.4,41.4,67.3z"/>
	<path class="st0" d="M35.8,67.4c-2.2,0-4,0-6,0c0-0.5-0.1-1-0.1-1.4c0-6.8,0-13.7,0-20.5c0-1.5,0.5-1.8,1.9-1.8
		c4.3,0,4.3,0,4.3,4.3c0,5.8,0,11.6,0,17.4C35.8,66,35.8,66.6,35.8,67.4z"/>
</g>
</svg>
