<?xml version="1.0" encoding="utf-8"?>
<!-- Generator: Adobe Illustrator 22.0.0, SVG Export Plug-In . SVG Version: 6.00 Build 0)  -->
<svg version="1.1" id="Calque_1" xmlns="http://www.w3.org/2000/svg" xmlns:xlink="http://www.w3.org/1999/xlink" x="0px" y="0px"
	 viewBox="0 0 100 100" style="enable-background:new 0 0 100 100;" xml:space="preserve">
<style type="text/css">
	.st0{fill:#FFFFFF;}
	.st1{fill:#FD4B3B;}
</style>
<g>
	<path class="st0" d="M100,49.9C99.6,22.1,77.9,0,50,0C22.1,0,0,22.1,0,50c0,27.9,22,49.9,49.9,49.9C77.8,100,99.6,77.9,100,49.9z"
		/>
	<path class="st1" d="M100,49.9c-0.4,27.9-22.2,50-50.1,50C22,99.9,0,77.8,0,50C0,22.1,22.1,0,50,0C77.9,0,99.6,22.1,100,49.9z
		 M60.6,30.5c-0.1-0.2-0.3-0.4-0.4-0.6c-0.3-0.1-0.5-0.2-0.8-0.2c-8.7-0.9-16,7.1-14,15.7c0.4,1.6,0,2.4-1.1,3.5
		C40,53,35.8,57.3,31.5,61.5c-1.7,1.7-2.3,3.7-1.5,6c1.4,3.8,6,4.7,9.1,1.7c4.5-4.4,8.9-8.9,13.2-13.3c0.7-0.7,1.4-1.1,2.4-0.8
		c5.6,1.4,10.6-0.4,13.9-5c2.1-2.9,2.8-6.1,1.7-9.9c-0.9,0.6-1.4,1.4-2,2.2c-1.6,2.3-3.7,3-6.4,2.7c-2-0.2-4.1,0-6.3,0
		c0-3.3,0-6.2,0-9.2c0-0.5,0.4-1.2,0.8-1.6C57.8,32.9,59.2,31.7,60.6,30.5z"/>
	<path class="st0" d="M60.6,30.5c-1.4,1.2-2.8,2.4-4.1,3.7c-0.4,0.4-0.8,1-0.8,1.6c-0.1,3,0,5.9,0,9.2c2.2,0,4.2-0.2,6.3,0
		c2.7,0.3,4.9-0.4,6.4-2.7c0.6-0.8,1.1-1.6,2-2.2c1,3.8,0.3,7-1.7,9.9c-3.3,4.7-8.3,6.5-13.9,5c-1.1-0.3-1.7,0.1-2.4,0.8
		c-4.4,4.5-8.8,8.9-13.2,13.3c-3.1,3-7.7,2.2-9.1-1.7c-0.8-2.3-0.2-4.3,1.5-6c4.3-4.2,8.6-8.5,12.9-12.7c1-1,1.4-1.9,1.1-3.5
		c-2-8.5,5.3-16.6,14-15.7c0.3,0,0.5,0.1,0.8,0.2C60.3,30.1,60.5,30.3,60.6,30.5z M34.9,68c1.2,0,2.4-1.1,2.4-2.3
		c0-1.2-1.1-2.3-2.3-2.4c-1.3,0-2.3,0.9-2.3,2.3C32.6,66.9,33.6,67.9,34.9,68z"/>
	<path class="st1" d="M34.9,68c-1.3,0-2.3-1-2.2-2.4c0-1.3,1-2.3,2.3-2.3c1.2,0,2.3,1.1,2.3,2.4C37.3,66.9,36.1,68,34.9,68z"/>
</g>
</svg>
